<svg width="215" height="215" viewBox="0 0 215 215" fill="none" xmlns="http://www.w3.org/2000/svg">
<path d="M103.32 0.125977H95.9403V7.50601H103.32V0.125977Z" fill="black"/>
<path d="M118.081 0.125977H110.701V7.50601H118.081V0.125977Z" fill="black"/>
<path d="M154.98 0.125977H147.6V7.50601H154.98V0.125977Z" fill="black"/>
<path d="M73.8008 7.50537H66.4208V14.8854H73.8008V7.50537Z" fill="black"/>
<path d="M81.1825 7.50537H73.8025V14.8854H81.1825V7.50537Z" fill="black"/>
<path d="M95.9386 7.50537H88.5586V14.8854H95.9386V7.50537Z" fill="black"/>
<path d="M103.32 7.50537H95.9403V14.8854H103.32V7.50537Z" fill="black"/>
<path d="M110.7 7.50537H103.32V14.8854H110.7V7.50537Z" fill="black"/>
<path d="M118.081 7.50537H110.701V14.8854H118.081V7.50537Z" fill="black"/>
<path d="M132.842 7.50537H125.462V14.8854H132.842V7.50537Z" fill="black"/>
<path d="M66.4215 14.8857H59.0415V22.2658H66.4215V14.8857Z" fill="black"/>
<path d="M73.8008 14.8857H66.4208V22.2658H73.8008V14.8857Z" fill="black"/>
<path d="M81.1825 14.8857H73.8025V22.2658H81.1825V14.8857Z" fill="black"/>
<path d="M95.9386 14.8857H88.5586V22.2658H95.9386V14.8857Z" fill="black"/>
<path d="M103.32 14.8857H95.9403V22.2658H103.32V14.8857Z" fill="black"/>
<path d="M118.081 14.8857H110.701V22.2658H118.081V14.8857Z" fill="black"/>
<path d="M147.601 14.8857H140.221V22.2658H147.601V14.8857Z" fill="black"/>
<path d="M154.98 14.8857H147.6V22.2658H154.98V14.8857Z" fill="black"/>
<path d="M66.4215 22.2661H59.0415V29.6461H66.4215V22.2661Z" fill="black"/>
<path d="M73.8008 22.2661H66.4208V29.6461H73.8008V22.2661Z" fill="black"/>
<path d="M81.1825 22.2661H73.8025V29.6461H81.1825V22.2661Z" fill="black"/>
<path d="M88.5594 22.2661H81.1793V29.6461H88.5594V22.2661Z" fill="black"/>
<path d="M110.7 22.2661H103.32V29.6461H110.7V22.2661Z" fill="black"/>
<path d="M118.081 22.2661H110.701V29.6461H118.081V22.2661Z" fill="black"/>
<path d="M140.222 22.2661H132.842V29.6461H140.222V22.2661Z" fill="black"/>
<path d="M154.98 22.2661H147.6V29.6461H154.98V22.2661Z" fill="black"/>
<path d="M66.4215 29.6455H59.0415V37.0255H66.4215V29.6455Z" fill="black"/>
<path d="M73.8008 29.6455H66.4208V37.0255H73.8008V29.6455Z" fill="black"/>
<path d="M81.1825 29.6455H73.8025V37.0255H81.1825V29.6455Z" fill="black"/>
<path d="M95.9386 29.6455H88.5586V37.0255H95.9386V29.6455Z" fill="black"/>
<path d="M140.222 29.6455H132.842V37.0255H140.222V29.6455Z" fill="black"/>
<path d="M147.601 29.6455H140.221V37.0255H147.601V29.6455Z" fill="black"/>
<path d="M66.4215 37.0261H59.0415V44.4062H66.4215V37.0261Z" fill="black"/>
<path d="M88.5594 37.0261H81.1793V44.4062H88.5594V37.0261Z" fill="black"/>
<path d="M95.9386 37.0261H88.5586V44.4062H95.9386V37.0261Z" fill="black"/>
<path d="M118.081 37.0261H110.701V44.4062H118.081V37.0261Z" fill="black"/>
<path d="M125.461 37.0261H118.081V44.4062H125.461V37.0261Z" fill="black"/>
<path d="M132.842 37.0261H125.462V44.4062H132.842V37.0261Z" fill="black"/>
<path d="M147.601 37.0261H140.221V44.4062H147.601V37.0261Z" fill="black"/>
<path d="M66.4215 44.4053H59.0415V51.7853H66.4215V44.4053Z" fill="black"/>
<path d="M81.1825 44.4053H73.8025V51.7853H81.1825V44.4053Z" fill="black"/>
<path d="M95.9386 44.4053H88.5586V51.7853H95.9386V44.4053Z" fill="black"/>
<path d="M110.7 44.4053H103.32V51.7853H110.7V44.4053Z" fill="black"/>
<path d="M125.461 44.4053H118.081V51.7853H125.461V44.4053Z" fill="black"/>
<path d="M140.222 44.4053H132.842V51.7853H140.222V44.4053Z" fill="black"/>
<path d="M154.98 44.4053H147.6V51.7853H154.98V44.4053Z" fill="black"/>
<path d="M66.4215 51.7847H59.0415V59.1647H66.4215V51.7847Z" fill="black"/>
<path d="M81.1825 51.7847H73.8025V59.1647H81.1825V51.7847Z" fill="black"/>
<path d="M88.5594 51.7847H81.1793V59.1647H88.5594V51.7847Z" fill="black"/>
<path d="M95.9386 51.7847H88.5586V59.1647H95.9386V51.7847Z" fill="black"/>
<path d="M110.7 51.7847H103.32V59.1647H110.7V51.7847Z" fill="black"/>
<path d="M125.461 51.7847H118.081V59.1647H125.461V51.7847Z" fill="black"/>
<path d="M140.222 51.7847H132.842V59.1647H140.222V51.7847Z" fill="black"/>
<path d="M147.601 51.7847H140.221V59.1647H147.601V51.7847Z" fill="black"/>
<path d="M154.98 51.7847H147.6V59.1647H154.98V51.7847Z" fill="black"/>
<path d="M7.38003 59.1663H0V66.5463H7.38003V59.1663Z" fill="black"/>
<path d="M22.141 59.1663H14.761V66.5463H22.141V59.1663Z" fill="black"/>
<path d="M29.5203 59.1663H22.1403V66.5463H29.5203V59.1663Z" fill="black"/>
<path d="M36.8996 59.1663H29.5195V66.5463H36.8996V59.1663Z" fill="black"/>
<path d="M44.2788 59.1663H36.8988V66.5463H44.2788V59.1663Z" fill="black"/>
<path d="M51.6605 59.1663H44.2805V66.5463H51.6605V59.1663Z" fill="black"/>
<path d="M73.8008 59.1663H66.4208V66.5463H73.8008V59.1663Z" fill="black"/>
<path d="M81.1825 59.1663H73.8025V66.5463H81.1825V59.1663Z" fill="black"/>
<path d="M88.5594 59.1663H81.1793V66.5463H88.5594V59.1663Z" fill="black"/>
<path d="M118.081 59.1663H110.701V66.5463H118.081V59.1663Z" fill="black"/>
<path d="M140.222 59.1663H132.842V66.5463H140.222V59.1663Z" fill="black"/>
<path d="M154.98 59.1663H147.6V66.5463H154.98V59.1663Z" fill="black"/>
<path d="M169.739 59.1663H162.359V66.5463H169.739V59.1663Z" fill="black"/>
<path d="M177.12 59.1663H169.74V66.5463H177.12V59.1663Z" fill="black"/>
<path d="M184.502 59.1663H177.122V66.5463H184.502V59.1663Z" fill="black"/>
<path d="M191.881 59.1663H184.501V66.5463H191.881V59.1663Z" fill="black"/>
<path d="M199.261 59.1663H191.881V66.5463H199.261V59.1663Z" fill="black"/>
<path d="M7.38003 66.5469H0V73.9269H7.38003V66.5469Z" fill="black"/>
<path d="M29.5203 66.5469H22.1403V73.9269H29.5203V66.5469Z" fill="black"/>
<path d="M44.2788 66.5469H36.8988V73.9269H44.2788V66.5469Z" fill="black"/>
<path d="M59.0398 66.5469H51.6598V73.9269H59.0398V66.5469Z" fill="black"/>
<path d="M66.4215 66.5469H59.0415V73.9269H66.4215V66.5469Z" fill="black"/>
<path d="M73.8008 66.5469H66.4208V73.9269H73.8008V66.5469Z" fill="black"/>
<path d="M81.1825 66.5469H73.8025V73.9269H81.1825V66.5469Z" fill="black"/>
<path d="M88.5594 66.5469H81.1793V73.9269H88.5594V66.5469Z" fill="black"/>
<path d="M103.32 66.5469H95.9403V73.9269H103.32V66.5469Z" fill="black"/>
<path d="M110.7 66.5469H103.32V73.9269H110.7V66.5469Z" fill="black"/>
<path d="M118.081 66.5469H110.701V73.9269H118.081V66.5469Z" fill="black"/>
<path d="M147.601 66.5469H140.221V73.9269H147.601V66.5469Z" fill="black"/>
<path d="M154.98 66.5469H147.6V73.9269H154.98V66.5469Z" fill="black"/>
<path d="M169.739 66.5469H162.359V73.9269H169.739V66.5469Z" fill="black"/>
<path d="M177.12 66.5469H169.74V73.9269H177.12V66.5469Z" fill="black"/>
<path d="M184.502 66.5469H177.122V73.9269H184.502V66.5469Z" fill="black"/>
<path d="M191.881 66.5469H184.501V73.9269H191.881V66.5469Z" fill="black"/>
<path d="M206.64 66.5469H199.26V73.9269H206.64V66.5469Z" fill="black"/>
<path d="M7.38003 73.926H0V81.3061H7.38003V73.926Z" fill="black"/>
<path d="M14.7593 73.926H7.37927V81.3061H14.7593V73.926Z" fill="black"/>
<path d="M44.2788 73.926H36.8988V81.3061H44.2788V73.926Z" fill="black"/>
<path d="M51.6605 73.926H44.2805V81.3061H51.6605V73.926Z" fill="black"/>
<path d="M59.0398 73.926H51.6598V81.3061H59.0398V73.926Z" fill="black"/>
<path d="M66.4215 73.926H59.0415V81.3061H66.4215V73.926Z" fill="black"/>
<path d="M73.8008 73.926H66.4208V81.3061H73.8008V73.926Z" fill="black"/>
<path d="M81.1825 73.926H73.8025V81.3061H81.1825V73.926Z" fill="black"/>
<path d="M88.5594 73.926H81.1793V81.3061H88.5594V73.926Z" fill="black"/>
<path d="M103.32 73.926H95.9403V81.3061H103.32V73.926Z" fill="black"/>
<path d="M110.7 73.926H103.32V81.3061H110.7V73.926Z" fill="black"/>
<path d="M118.081 73.926H110.701V81.3061H118.081V73.926Z" fill="black"/>
<path d="M125.461 73.926H118.081V81.3061H125.461V73.926Z" fill="black"/>
<path d="M132.842 73.926H125.462V81.3061H132.842V73.926Z" fill="black"/>
<path d="M147.601 73.926H140.221V81.3061H147.601V73.926Z" fill="black"/>
<path d="M177.12 73.926H169.74V81.3061H177.12V73.926Z" fill="black"/>
<path d="M191.881 73.926H184.501V81.3061H191.881V73.926Z" fill="black"/>
<path d="M199.261 73.926H191.881V81.3061H199.261V73.926Z" fill="black"/>
<path d="M7.38003 81.3054H0V88.6855H7.38003V81.3054Z" fill="black"/>
<path d="M22.141 81.3054H14.761V88.6855H22.141V81.3054Z" fill="black"/>
<path d="M44.2788 81.3054H36.8988V88.6855H44.2788V81.3054Z" fill="black"/>
<path d="M73.8008 81.3054H66.4208V88.6855H73.8008V81.3054Z" fill="black"/>
<path d="M95.9386 81.3054H88.5586V88.6855H95.9386V81.3054Z" fill="black"/>
<path d="M103.32 81.3054H95.9403V88.6855H103.32V81.3054Z" fill="black"/>
<path d="M125.461 81.3054H118.081V88.6855H125.461V81.3054Z" fill="black"/>
<path d="M132.842 81.3054H125.462V88.6855H132.842V81.3054Z" fill="black"/>
<path d="M147.601 81.3054H140.221V88.6855H147.601V81.3054Z" fill="black"/>
<path d="M154.98 81.3054H147.6V88.6855H154.98V81.3054Z" fill="black"/>
<path d="M162.36 81.3054H154.979V88.6855H162.36V81.3054Z" fill="black"/>
<path d="M169.739 81.3054H162.359V88.6855H169.739V81.3054Z" fill="black"/>
<path d="M177.12 81.3054H169.74V88.6855H177.12V81.3054Z" fill="black"/>
<path d="M184.502 81.3054H177.122V88.6855H184.502V81.3054Z" fill="black"/>
<path d="M191.881 81.3054H184.501V88.6855H191.881V81.3054Z" fill="black"/>
<path d="M214.022 81.3054H206.642V88.6855H214.022V81.3054Z" fill="black"/>
<path d="M7.38003 88.687H0V96.067H7.38003V88.687Z" fill="black"/>
<path d="M14.7593 88.687H7.37927V96.067H14.7593V88.687Z" fill="black"/>
<path d="M29.5203 88.687H22.1403V96.067H29.5203V88.687Z" fill="black"/>
<path d="M36.8996 88.687H29.5195V96.067H36.8996V88.687Z" fill="black"/>
<path d="M44.2788 88.687H36.8988V96.067H44.2788V88.687Z" fill="black"/>
<path d="M51.6605 88.687H44.2805V96.067H51.6605V88.687Z" fill="black"/>
<path d="M59.0398 88.687H51.6598V96.067H59.0398V88.687Z" fill="black"/>
<path d="M66.4215 88.687H59.0415V96.067H66.4215V88.687Z" fill="black"/>
<path d="M88.5594 88.687H81.1793V96.067H88.5594V88.687Z" fill="black"/>
<path d="M95.9386 88.687H88.5586V96.067H95.9386V88.687Z" fill="black"/>
<path d="M110.7 88.687H103.32V96.067H110.7V88.687Z" fill="black"/>
<path d="M118.081 88.687H110.701V96.067H118.081V88.687Z" fill="black"/>
<path d="M125.461 88.687H118.081V96.067H125.461V88.687Z" fill="black"/>
<path d="M140.222 88.687H132.842V96.067H140.222V88.687Z" fill="black"/>
<path d="M154.98 88.687H147.6V96.067H154.98V88.687Z" fill="black"/>
<path d="M169.739 88.687H162.359V96.067H169.739V88.687Z" fill="black"/>
<path d="M177.12 88.687H169.74V96.067H177.12V88.687Z" fill="black"/>
<path d="M7.38003 96.0664H0V103.446H7.38003V96.0664Z" fill="black"/>
<path d="M22.141 96.0664H14.761V103.446H22.141V96.0664Z" fill="black"/>
<path d="M29.5203 96.0664H22.1403V103.446H29.5203V96.0664Z" fill="black"/>
<path d="M36.8996 96.0664H29.5195V103.446H36.8996V96.0664Z" fill="black"/>
<path d="M44.2788 96.0664H36.8988V103.446H44.2788V96.0664Z" fill="black"/>
<path d="M73.8008 96.0664H66.4208V103.446H73.8008V96.0664Z" fill="black"/>
<path d="M81.1825 96.0664H73.8025V103.446H81.1825V96.0664Z" fill="black"/>
<path d="M125.461 96.0664H118.081V103.446H125.461V96.0664Z" fill="black"/>
<path d="M147.601 96.0664H140.221V103.446H147.601V96.0664Z" fill="black"/>
<path d="M162.36 96.0664H154.979V103.446H162.36V96.0664Z" fill="black"/>
<path d="M169.739 96.0664H162.359V103.446H169.739V96.0664Z" fill="black"/>
<path d="M177.12 96.0664H169.74V103.446H177.12V96.0664Z" fill="black"/>
<path d="M191.881 96.0664H184.501V103.446H191.881V96.0664Z" fill="black"/>
<path d="M206.64 96.0664H199.26V103.446H206.64V96.0664Z" fill="black"/>
<path d="M14.7593 103.447H7.37927V110.827H14.7593V103.447Z" fill="black"/>
<path d="M22.141 103.447H14.761V110.827H22.141V103.447Z" fill="black"/>
<path d="M36.8996 103.447H29.5195V110.827H36.8996V103.447Z" fill="black"/>
<path d="M44.2788 103.447H36.8988V110.827H44.2788V103.447Z" fill="black"/>
<path d="M51.6605 103.447H44.2805V110.827H51.6605V103.447Z" fill="black"/>
<path d="M59.0398 103.447H51.6598V110.827H59.0398V103.447Z" fill="black"/>
<path d="M66.4215 103.447H59.0415V110.827H66.4215V103.447Z" fill="black"/>
<path d="M88.5594 103.447H81.1793V110.827H88.5594V103.447Z" fill="black"/>
<path d="M95.9386 103.447H88.5586V110.827H95.9386V103.447Z" fill="black"/>
<path d="M132.842 103.447H125.462V110.827H132.842V103.447Z" fill="black"/>
<path d="M191.881 103.447H184.501V110.827H191.881V103.447Z" fill="black"/>
<path d="M199.261 103.447H191.881V110.827H199.261V103.447Z" fill="black"/>
<path d="M206.64 103.447H199.26V110.827H206.64V103.447Z" fill="black"/>
<path d="M214.022 103.447H206.642V110.827H214.022V103.447Z" fill="black"/>
<path d="M7.38003 110.826H0V118.206H7.38003V110.826Z" fill="black"/>
<path d="M14.7593 110.826H7.37927V118.206H14.7593V110.826Z" fill="black"/>
<path d="M22.141 110.826H14.761V118.206H22.141V110.826Z" fill="black"/>
<path d="M29.5203 110.826H22.1403V118.206H29.5203V110.826Z" fill="black"/>
<path d="M44.2788 110.826H36.8988V118.206H44.2788V110.826Z" fill="black"/>
<path d="M59.0398 110.826H51.6598V118.206H59.0398V110.826Z" fill="black"/>
<path d="M66.4215 110.826H59.0415V118.206H66.4215V110.826Z" fill="black"/>
<path d="M81.1825 110.826H73.8025V118.206H81.1825V110.826Z" fill="black"/>
<path d="M88.5594 110.826H81.1793V118.206H88.5594V110.826Z" fill="black"/>
<path d="M95.9386 110.826H88.5586V118.206H95.9386V110.826Z" fill="black"/>
<path d="M110.7 110.826H103.32V118.206H110.7V110.826Z" fill="black"/>
<path d="M140.222 110.826H132.842V118.206H140.222V110.826Z" fill="black"/>
<path d="M147.601 110.826H140.221V118.206H147.601V110.826Z" fill="black"/>
<path d="M154.98 110.826H147.6V118.206H154.98V110.826Z" fill="black"/>
<path d="M162.36 110.826H154.979V118.206H162.36V110.826Z" fill="black"/>
<path d="M169.739 110.826H162.359V118.206H169.739V110.826Z" fill="black"/>
<path d="M177.12 110.826H169.74V118.206H177.12V110.826Z" fill="black"/>
<path d="M184.502 110.826H177.122V118.206H184.502V110.826Z" fill="black"/>
<path d="M206.64 110.826H199.26V118.206H206.64V110.826Z" fill="black"/>
<path d="M214.022 110.826H206.642V118.206H214.022V110.826Z" fill="black"/>
<path d="M14.7593 118.207H7.37927V125.587H14.7593V118.207Z" fill="black"/>
<path d="M29.5203 118.207H22.1403V125.587H29.5203V118.207Z" fill="black"/>
<path d="M36.8996 118.207H29.5195V125.587H36.8996V118.207Z" fill="black"/>
<path d="M44.2788 118.207H36.8988V125.587H44.2788V118.207Z" fill="black"/>
<path d="M51.6605 118.207H44.2805V125.587H51.6605V118.207Z" fill="black"/>
<path d="M66.4215 118.207H59.0415V125.587H66.4215V118.207Z" fill="black"/>
<path d="M118.081 118.207H110.701V125.587H118.081V118.207Z" fill="black"/>
<path d="M125.461 118.207H118.081V125.587H125.461V118.207Z" fill="black"/>
<path d="M140.222 118.207H132.842V125.587H140.222V118.207Z" fill="black"/>
<path d="M169.739 118.207H162.359V125.587H169.739V118.207Z" fill="black"/>
<path d="M184.502 118.207H177.122V125.587H184.502V118.207Z" fill="black"/>
<path d="M7.38003 125.587H0V132.967H7.38003V125.587Z" fill="black"/>
<path d="M14.7593 125.587H7.37927V132.967H14.7593V125.587Z" fill="black"/>
<path d="M29.5203 125.587H22.1403V132.967H29.5203V125.587Z" fill="black"/>
<path d="M44.2788 125.587H36.8988V132.967H44.2788V125.587Z" fill="black"/>
<path d="M73.8008 125.587H66.4208V132.967H73.8008V125.587Z" fill="black"/>
<path d="M95.9386 125.587H88.5586V132.967H95.9386V125.587Z" fill="black"/>
<path d="M103.32 125.587H95.9403V132.967H103.32V125.587Z" fill="black"/>
<path d="M110.7 125.587H103.32V132.967H110.7V125.587Z" fill="black"/>
<path d="M118.081 125.587H110.701V132.967H118.081V125.587Z" fill="black"/>
<path d="M125.461 125.587H118.081V132.967H125.461V125.587Z" fill="black"/>
<path d="M147.601 125.587H140.221V132.967H147.601V125.587Z" fill="black"/>
<path d="M154.98 125.587H147.6V132.967H154.98V125.587Z" fill="black"/>
<path d="M162.36 125.587H154.979V132.967H162.36V125.587Z" fill="black"/>
<path d="M177.12 125.587H169.74V132.967H177.12V125.587Z" fill="black"/>
<path d="M184.502 125.587H177.122V132.967H184.502V125.587Z" fill="black"/>
<path d="M191.881 125.587H184.501V132.967H191.881V125.587Z" fill="black"/>
<path d="M206.64 125.587H199.26V132.967H206.64V125.587Z" fill="black"/>
<path d="M214.022 125.587H206.642V132.967H214.022V125.587Z" fill="black"/>
<path d="M7.38003 132.966H0V140.346H7.38003V132.966Z" fill="black"/>
<path d="M29.5203 132.966H22.1403V140.346H29.5203V132.966Z" fill="black"/>
<path d="M36.8996 132.966H29.5195V140.346H36.8996V132.966Z" fill="black"/>
<path d="M44.2788 132.966H36.8988V140.346H44.2788V132.966Z" fill="black"/>
<path d="M51.6605 132.966H44.2805V140.346H51.6605V132.966Z" fill="black"/>
<path d="M59.0398 132.966H51.6598V140.346H59.0398V132.966Z" fill="black"/>
<path d="M66.4215 132.966H59.0415V140.346H66.4215V132.966Z" fill="black"/>
<path d="M88.5594 132.966H81.1793V140.346H88.5594V132.966Z" fill="black"/>
<path d="M103.32 132.966H95.9403V140.346H103.32V132.966Z" fill="black"/>
<path d="M110.7 132.966H103.32V140.346H110.7V132.966Z" fill="black"/>
<path d="M132.842 132.966H125.462V140.346H132.842V132.966Z" fill="black"/>
<path d="M147.601 132.966H140.221V140.346H147.601V132.966Z" fill="black"/>
<path d="M191.881 132.966H184.501V140.346H191.881V132.966Z" fill="black"/>
<path d="M199.261 132.966H191.881V140.346H199.261V132.966Z" fill="black"/>
<path d="M206.64 132.966H199.26V140.346H206.64V132.966Z" fill="black"/>
<path d="M7.38003 140.347H0V147.727H7.38003V140.347Z" fill="black"/>
<path d="M36.8996 140.347H29.5195V147.727H36.8996V140.347Z" fill="black"/>
<path d="M59.0398 140.347H51.6598V147.727H59.0398V140.347Z" fill="black"/>
<path d="M73.8008 140.347H66.4208V147.727H73.8008V140.347Z" fill="black"/>
<path d="M88.5594 140.347H81.1793V147.727H88.5594V140.347Z" fill="black"/>
<path d="M95.9386 140.347H88.5586V147.727H95.9386V140.347Z" fill="black"/>
<path d="M103.32 140.347H95.9403V147.727H103.32V140.347Z" fill="black"/>
<path d="M125.461 140.347H118.081V147.727H125.461V140.347Z" fill="black"/>
<path d="M147.601 140.347H140.221V147.727H147.601V140.347Z" fill="black"/>
<path d="M162.36 140.347H154.979V147.727H162.36V140.347Z" fill="black"/>
<path d="M169.739 140.347H162.359V147.727H169.739V140.347Z" fill="black"/>
<path d="M177.12 140.347H169.74V147.727H177.12V140.347Z" fill="black"/>
<path d="M184.502 140.347H177.122V147.727H184.502V140.347Z" fill="black"/>
<path d="M206.64 140.347H199.26V147.727H206.64V140.347Z" fill="black"/>
<path d="M214.022 140.347H206.642V147.727H214.022V140.347Z" fill="black"/>
<path d="M7.38003 147.726H0V155.106H7.38003V147.726Z" fill="black"/>
<path d="M22.141 147.726H14.761V155.106H22.141V147.726Z" fill="black"/>
<path d="M44.2788 147.726H36.8988V155.106H44.2788V147.726Z" fill="black"/>
<path d="M51.6605 147.726H44.2805V155.106H51.6605V147.726Z" fill="black"/>
<path d="M59.0398 147.726H51.6598V155.106H59.0398V147.726Z" fill="black"/>
<path d="M66.4215 147.726H59.0415V155.106H66.4215V147.726Z" fill="black"/>
<path d="M73.8008 147.726H66.4208V155.106H73.8008V147.726Z" fill="black"/>
<path d="M81.1825 147.726H73.8025V155.106H81.1825V147.726Z" fill="black"/>
<path d="M88.5594 147.726H81.1793V155.106H88.5594V147.726Z" fill="black"/>
<path d="M110.7 147.726H103.32V155.106H110.7V147.726Z" fill="black"/>
<path d="M118.081 147.726H110.701V155.106H118.081V147.726Z" fill="black"/>
<path d="M125.461 147.726H118.081V155.106H125.461V147.726Z" fill="black"/>
<path d="M140.222 147.726H132.842V155.106H140.222V147.726Z" fill="black"/>
<path d="M154.98 147.726H147.6V155.106H154.98V147.726Z" fill="black"/>
<path d="M162.36 147.726H154.979V155.106H162.36V147.726Z" fill="black"/>
<path d="M169.739 147.726H162.359V155.106H169.739V147.726Z" fill="black"/>
<path d="M177.12 147.726H169.74V155.106H177.12V147.726Z" fill="black"/>
<path d="M184.502 147.726H177.122V155.106H184.502V147.726Z" fill="black"/>
<path d="M191.881 147.726H184.501V155.106H191.881V147.726Z" fill="black"/>
<path d="M199.261 147.726H191.881V155.106H199.261V147.726Z" fill="black"/>
<path d="M206.64 147.726H199.26V155.106H206.64V147.726Z" fill="black"/>
<path d="M66.4215 155.108H59.0415V162.488H66.4215V155.108Z" fill="black"/>
<path d="M81.1825 155.108H73.8025V162.488H81.1825V155.108Z" fill="black"/>
<path d="M88.5594 155.108H81.1793V162.488H88.5594V155.108Z" fill="black"/>
<path d="M125.461 155.108H118.081V162.488H125.461V155.108Z" fill="black"/>
<path d="M140.222 155.108H132.842V162.488H140.222V155.108Z" fill="black"/>
<path d="M154.98 155.108H147.6V162.488H154.98V155.108Z" fill="black"/>
<path d="M184.502 155.108H177.122V162.488H184.502V155.108Z" fill="black"/>
<path d="M206.64 155.108H199.26V162.488H206.64V155.108Z" fill="black"/>
<path d="M73.8008 162.486H66.4208V169.866H73.8008V162.486Z" fill="black"/>
<path d="M95.9386 162.486H88.5586V169.866H95.9386V162.486Z" fill="black"/>
<path d="M132.842 162.486H125.462V169.866H132.842V162.486Z" fill="black"/>
<path d="M154.98 162.486H147.6V169.866H154.98V162.486Z" fill="black"/>
<path d="M169.739 162.486H162.359V169.866H169.739V162.486Z" fill="black"/>
<path d="M184.502 162.486H177.122V169.866H184.502V162.486Z" fill="black"/>
<path d="M191.881 162.486H184.501V169.866H191.881V162.486Z" fill="black"/>
<path d="M199.261 162.486H191.881V169.866H199.261V162.486Z" fill="black"/>
<path d="M66.4215 169.866H59.0415V177.246H66.4215V169.866Z" fill="black"/>
<path d="M88.5594 169.866H81.1793V177.246H88.5594V169.866Z" fill="black"/>
<path d="M110.7 169.866H103.32V177.246H110.7V169.866Z" fill="black"/>
<path d="M125.461 169.866H118.081V177.246H125.461V169.866Z" fill="black"/>
<path d="M147.601 169.866H140.221V177.246H147.601V169.866Z" fill="black"/>
<path d="M154.98 169.866H147.6V177.246H154.98V169.866Z" fill="black"/>
<path d="M184.502 169.866H177.122V177.246H184.502V169.866Z" fill="black"/>
<path d="M199.261 169.866H191.881V177.246H199.261V169.866Z" fill="black"/>
<path d="M206.64 169.866H199.26V177.246H206.64V169.866Z" fill="black"/>
<path d="M214.022 169.866H206.642V177.246H214.022V169.866Z" fill="black"/>
<path d="M66.4215 177.247H59.0415V184.627H66.4215V177.247Z" fill="black"/>
<path d="M73.8008 177.247H66.4208V184.627H73.8008V177.247Z" fill="black"/>
<path d="M81.1825 177.247H73.8025V184.627H81.1825V177.247Z" fill="black"/>
<path d="M88.5594 177.247H81.1793V184.627H88.5594V177.247Z" fill="black"/>
<path d="M118.081 177.247H110.701V184.627H118.081V177.247Z" fill="black"/>
<path d="M125.461 177.247H118.081V184.627H125.461V177.247Z" fill="black"/>
<path d="M140.222 177.247H132.842V184.627H140.222V177.247Z" fill="black"/>
<path d="M154.98 177.247H147.6V184.627H154.98V177.247Z" fill="black"/>
<path d="M162.36 177.247H154.979V184.627H162.36V177.247Z" fill="black"/>
<path d="M169.739 177.247H162.359V184.627H169.739V177.247Z" fill="black"/>
<path d="M177.12 177.247H169.74V184.627H177.12V177.247Z" fill="black"/>
<path d="M184.502 177.247H177.122V184.627H184.502V177.247Z" fill="black"/>
<path d="M199.261 177.247H191.881V184.627H199.261V177.247Z" fill="black"/>
<path d="M206.64 177.247H199.26V184.627H206.64V177.247Z" fill="black"/>
<path d="M214.022 177.247H206.642V184.627H214.022V177.247Z" fill="black"/>
<path d="M66.4215 184.626H59.0415V192.006H66.4215V184.626Z" fill="black"/>
<path d="M103.32 184.626H95.9403V192.006H103.32V184.626Z" fill="black"/>
<path d="M110.7 184.626H103.32V192.006H110.7V184.626Z" fill="black"/>
<path d="M140.222 184.626H132.842V192.006H140.222V184.626Z" fill="black"/>
<path d="M154.98 184.626H147.6V192.006H154.98V184.626Z" fill="black"/>
<path d="M169.739 184.626H162.359V192.006H169.739V184.626Z" fill="black"/>
<path d="M177.12 184.626H169.74V192.006H177.12V184.626Z" fill="black"/>
<path d="M66.4215 192.005H59.0415V199.385H66.4215V192.005Z" fill="black"/>
<path d="M73.8008 192.005H66.4208V199.385H73.8008V192.005Z" fill="black"/>
<path d="M95.9386 192.005H88.5586V199.385H95.9386V192.005Z" fill="black"/>
<path d="M103.32 192.005H95.9403V199.385H103.32V192.005Z" fill="black"/>
<path d="M118.081 192.005H110.701V199.385H118.081V192.005Z" fill="black"/>
<path d="M132.842 192.005H125.462V199.385H132.842V192.005Z" fill="black"/>
<path d="M140.222 192.005H132.842V199.385H140.222V192.005Z" fill="black"/>
<path d="M147.601 192.005H140.221V199.385H147.601V192.005Z" fill="black"/>
<path d="M169.739 192.005H162.359V199.385H169.739V192.005Z" fill="black"/>
<path d="M177.12 192.005H169.74V199.385H177.12V192.005Z" fill="black"/>
<path d="M199.261 192.005H191.881V199.385H199.261V192.005Z" fill="black"/>
<path d="M206.64 192.005H199.26V199.385H206.64V192.005Z" fill="black"/>
<path d="M88.5594 199.387H81.1793V206.767H88.5594V199.387Z" fill="black"/>
<path d="M110.7 199.387H103.32V206.767H110.7V199.387Z" fill="black"/>
<path d="M125.461 199.387H118.081V206.767H125.461V199.387Z" fill="black"/>
<path d="M132.842 199.387H125.462V206.767H132.842V199.387Z" fill="black"/>
<path d="M140.222 199.387H132.842V206.767H140.222V199.387Z" fill="black"/>
<path d="M147.601 199.387H140.221V206.767H147.601V199.387Z" fill="black"/>
<path d="M191.881 199.387H184.501V206.767H191.881V199.387Z" fill="black"/>
<path d="M199.261 199.387H191.881V206.767H199.261V199.387Z" fill="black"/>
<path d="M214.022 199.387H206.642V206.767H214.022V199.387Z" fill="black"/>
<path d="M66.4215 206.766H59.0415V214.146H66.4215V206.766Z" fill="black"/>
<path d="M73.8008 206.766H66.4208V214.146H73.8008V206.766Z" fill="black"/>
<path d="M81.1825 206.766H73.8025V214.146H81.1825V206.766Z" fill="black"/>
<path d="M88.5594 206.766H81.1793V214.146H88.5594V206.766Z" fill="black"/>
<path d="M103.32 206.766H95.9403V214.146H103.32V206.766Z" fill="black"/>
<path d="M118.081 206.766H110.701V214.146H118.081V206.766Z" fill="black"/>
<path d="M132.842 206.766H125.462V214.146H132.842V206.766Z" fill="black"/>
<path d="M162.36 206.766H154.979V214.146H162.36V206.766Z" fill="black"/>
<path d="M169.739 206.766H162.359V214.146H169.739V206.766Z" fill="black"/>
<path d="M184.502 206.766H177.122V214.146H184.502V206.766Z" fill="black"/>
<path d="M191.881 206.766H184.501V214.146H191.881V206.766Z" fill="black"/>
<path d="M199.261 206.766H191.881V214.146H199.261V206.766Z" fill="black"/>
<path fill-rule="evenodd" clip-rule="evenodd" d="M0 0.125977H51.6602V51.7862H0V0.125977ZM7.38003 7.50601H44.2802V44.4062H7.38003V7.50601Z" fill="black"/>
<path fill-rule="evenodd" clip-rule="evenodd" d="M162.359 0.125977H214.019V51.7862H162.359V0.125977ZM169.739 7.50601H206.639V44.4062H169.739V7.50601Z" fill="black"/>
<path d="M36.9011 14.8857H14.761V37.0258H36.9011V14.8857Z" fill="black"/>
<path d="M199.262 14.8857H177.122V37.0258H199.262V14.8857Z" fill="black"/>
<path fill-rule="evenodd" clip-rule="evenodd" d="M0 162.486H51.6602V214.146H0V162.486ZM7.38003 169.866H44.2802V206.766H7.38003V169.866Z" fill="black"/>
<path d="M36.9011 177.247H14.761V199.387H36.9011V177.247Z" fill="black"/>
</svg>
