<svg width="259" height="52" viewBox="0 0 259 52" fill="none" xmlns="http://www.w3.org/2000/svg">
<path d="M1.0712 28.3729C3.21927 22.7136 11.2743 18.3513 15.0333 16.8776C32.2173 9.80377 59.8726 6.26679 71.418 8.03566C82.9634 9.80452 70.3439 13.3411 59.3354 16.8781C48.327 20.415 56.3819 22.1837 66.3164 20.4153C76.2508 18.6469 96.9252 16.8786 114.646 15.9946C132.367 15.1106 114.378 13.3418 96.9253 13.3415C79.4729 13.3413 79.7414 9.80433 85.9169 8.03587C92.0924 6.26741 106.054 -0.806576 122.433 0.0779385C138.811 0.962453 177.475 2.73157 194.122 8.92173C210.768 15.1119 245.136 31.9136 253.459 37.2194C261.783 42.5251 260.709 57.5578 245.941 48.7148C231.174 39.8719 200.565 23.9545 133.441 21.3007C66.3164 18.6469 15.3015 33.6788 9.93143 39.8686C4.56138 46.0585 0.802403 46.0584 2.95047 40.7528C5.09853 35.4472 5.63558 34.5629 3.48757 36.3314C1.33956 38.0999 -1.61389 35.4471 1.0712 28.3729Z" fill="#F40009"/>
</svg>
