<svg width="215" height="44" viewBox="0 0 215 44" fill="none" xmlns="http://www.w3.org/2000/svg">
<path d="M1.38802 24.3785C3.16529 19.6958 9.83006 16.0863 12.9403 14.8669C27.1585 9.01373 50.0408 6.08684 59.5937 7.55028C69.1465 9.01373 58.705 11.9401 49.5965 14.8668C40.488 17.7934 47.1528 19.2567 55.3726 17.7934C63.5925 16.3301 80.6988 14.8668 95.3613 14.1351C110.024 13.4034 95.1391 11.9401 80.6988 11.9401C66.2584 11.9401 66.4806 9.01361 71.5903 7.55028C76.6999 6.08696 88.2522 0.233681 101.804 0.965342C115.356 1.697 147.347 3.16032 161.12 8.28195C174.894 13.4036 203.331 27.3051 210.218 31.6951C217.104 36.085 216.216 48.5233 203.997 41.2067C191.778 33.8901 166.452 20.7202 110.912 18.5252C55.3726 16.3302 13.1624 28.7684 8.71924 33.8901C4.27605 39.0117 1.16583 39.0117 2.9431 34.6217C4.72037 30.2318 5.16472 29.5001 3.38745 30.9634C1.61018 32.4267 -0.833573 30.2318 1.38802 24.3785Z" fill="white"/>
</svg>
